<mxfile host="app.diagrams.net" modified="2022-01-24T04:47:47.068Z" agent="5.0 (Windows NT 10.0; Win64; x64) AppleWebKit/537.36 (KHTML, like Gecko) Chrome/97.0.4692.71 Safari/537.36 Edg/97.0.1072.62" etag="lYNtAnKicWVrqwmdWbtR" version="16.4.5" type="github">
  <diagram id="WZl1e1oaSdKvwaw4DgWh" name="Page-1">
    <mxGraphModel dx="1038" dy="675" grid="1" gridSize="10" guides="1" tooltips="1" connect="1" arrows="1" fold="1" page="1" pageScale="1" pageWidth="827" pageHeight="1169" math="0" shadow="0">
      <root>
        <mxCell id="0" />
        <mxCell id="1" parent="0" />
        <mxCell id="ISysDzoj_-dpsbxpFNtj-2" value="&lt;br&gt;Profile" style="rounded=0;whiteSpace=wrap;html=1;" vertex="1" parent="1">
          <mxGeometry x="610" y="240" width="190" height="350" as="geometry" />
        </mxCell>
        <mxCell id="ISysDzoj_-dpsbxpFNtj-1" value="Timeline" style="rounded=0;whiteSpace=wrap;html=1;" vertex="1" parent="1">
          <mxGeometry x="645" y="270" width="120" height="40" as="geometry" />
        </mxCell>
        <mxCell id="ISysDzoj_-dpsbxpFNtj-6" value="Timeline" style="rounded=0;whiteSpace=wrap;html=1;" vertex="1" parent="1">
          <mxGeometry x="645" y="320" width="120" height="40" as="geometry" />
        </mxCell>
        <mxCell id="ISysDzoj_-dpsbxpFNtj-7" value="Timeline" style="rounded=0;whiteSpace=wrap;html=1;" vertex="1" parent="1">
          <mxGeometry x="645" y="370" width="120" height="40" as="geometry" />
        </mxCell>
        <mxCell id="ISysDzoj_-dpsbxpFNtj-9" value="Timeline" style="rounded=0;whiteSpace=wrap;html=1;" vertex="1" parent="1">
          <mxGeometry x="645" y="440" width="120" height="40" as="geometry" />
        </mxCell>
        <mxCell id="ISysDzoj_-dpsbxpFNtj-10" value="Timeline" style="rounded=0;whiteSpace=wrap;html=1;" vertex="1" parent="1">
          <mxGeometry x="645" y="500" width="120" height="40" as="geometry" />
        </mxCell>
        <mxCell id="ISysDzoj_-dpsbxpFNtj-12" style="edgeStyle=orthogonalEdgeStyle;rounded=0;orthogonalLoop=1;jettySize=auto;html=1;entryX=0;entryY=0.5;entryDx=0;entryDy=0;" edge="1" parent="1" source="ISysDzoj_-dpsbxpFNtj-11" target="ISysDzoj_-dpsbxpFNtj-1">
          <mxGeometry relative="1" as="geometry" />
        </mxCell>
        <mxCell id="ISysDzoj_-dpsbxpFNtj-11" value="Company" style="shape=umlActor;verticalLabelPosition=bottom;verticalAlign=top;html=1;outlineConnect=0;" vertex="1" parent="1">
          <mxGeometry x="50" y="260" width="30" height="60" as="geometry" />
        </mxCell>
        <mxCell id="ISysDzoj_-dpsbxpFNtj-22" style="edgeStyle=orthogonalEdgeStyle;rounded=0;orthogonalLoop=1;jettySize=auto;html=1;entryX=0;entryY=0.75;entryDx=0;entryDy=0;" edge="1" parent="1" source="ISysDzoj_-dpsbxpFNtj-16" target="ISysDzoj_-dpsbxpFNtj-1">
          <mxGeometry relative="1" as="geometry">
            <Array as="points">
              <mxPoint x="540" y="400" />
              <mxPoint x="540" y="300" />
            </Array>
          </mxGeometry>
        </mxCell>
        <mxCell id="ISysDzoj_-dpsbxpFNtj-16" value="University&lt;br&gt;" style="shape=umlActor;verticalLabelPosition=bottom;verticalAlign=top;html=1;outlineConnect=0;" vertex="1" parent="1">
          <mxGeometry x="50" y="370" width="30" height="60" as="geometry" />
        </mxCell>
        <mxCell id="ISysDzoj_-dpsbxpFNtj-30" style="edgeStyle=orthogonalEdgeStyle;rounded=0;orthogonalLoop=1;jettySize=auto;html=1;" edge="1" parent="1" source="ISysDzoj_-dpsbxpFNtj-19">
          <mxGeometry relative="1" as="geometry">
            <mxPoint x="50" y="390" as="targetPoint" />
            <Array as="points">
              <mxPoint x="10" y="510" />
              <mxPoint x="10" y="390" />
              <mxPoint x="50" y="390" />
            </Array>
          </mxGeometry>
        </mxCell>
        <mxCell id="ISysDzoj_-dpsbxpFNtj-19" value="GOV" style="shape=umlActor;verticalLabelPosition=bottom;verticalAlign=top;html=1;outlineConnect=0;" vertex="1" parent="1">
          <mxGeometry x="50" y="480" width="30" height="60" as="geometry" />
        </mxCell>
        <mxCell id="ISysDzoj_-dpsbxpFNtj-29" style="edgeStyle=orthogonalEdgeStyle;rounded=0;orthogonalLoop=1;jettySize=auto;html=1;exitX=1;exitY=0;exitDx=0;exitDy=0;entryX=0;entryY=0.25;entryDx=0;entryDy=0;" edge="1" parent="1" source="ISysDzoj_-dpsbxpFNtj-24" target="ISysDzoj_-dpsbxpFNtj-1">
          <mxGeometry relative="1" as="geometry" />
        </mxCell>
        <mxCell id="ISysDzoj_-dpsbxpFNtj-24" value="CREATE" style="rhombus;whiteSpace=wrap;html=1;" vertex="1" parent="1">
          <mxGeometry x="390" y="250" width="80" height="80" as="geometry" />
        </mxCell>
        <mxCell id="ISysDzoj_-dpsbxpFNtj-26" style="edgeStyle=orthogonalEdgeStyle;rounded=0;orthogonalLoop=1;jettySize=auto;html=1;entryX=0.5;entryY=0;entryDx=0;entryDy=0;" edge="1" parent="1" source="ISysDzoj_-dpsbxpFNtj-25" target="ISysDzoj_-dpsbxpFNtj-2">
          <mxGeometry relative="1" as="geometry" />
        </mxCell>
        <mxCell id="ISysDzoj_-dpsbxpFNtj-28" style="edgeStyle=orthogonalEdgeStyle;rounded=0;orthogonalLoop=1;jettySize=auto;html=1;entryX=0;entryY=0;entryDx=0;entryDy=0;" edge="1" parent="1" source="ISysDzoj_-dpsbxpFNtj-25" target="ISysDzoj_-dpsbxpFNtj-24">
          <mxGeometry relative="1" as="geometry">
            <Array as="points">
              <mxPoint x="65" y="250" />
              <mxPoint x="410" y="250" />
            </Array>
          </mxGeometry>
        </mxCell>
        <mxCell id="ISysDzoj_-dpsbxpFNtj-25" value="User&lt;br&gt;" style="shape=umlActor;verticalLabelPosition=bottom;verticalAlign=top;html=1;outlineConnect=0;" vertex="1" parent="1">
          <mxGeometry x="50" y="150" width="30" height="60" as="geometry" />
        </mxCell>
        <mxCell id="ISysDzoj_-dpsbxpFNtj-27" value="Own" style="rhombus;whiteSpace=wrap;html=1;" vertex="1" parent="1">
          <mxGeometry x="334" y="140" width="80" height="80" as="geometry" />
        </mxCell>
      </root>
    </mxGraphModel>
  </diagram>
</mxfile>
